<?xml version="1.0" encoding="UTF-8"?>
<svg id="Ebene_1" data-name="Ebene 1" xmlns="http://www.w3.org/2000/svg" viewBox="0 0 61 61">
  <defs>
    <style>
      .cls-1 {
        fill: #191a1c;
      }

      .cls-1, .cls-2, .cls-3 {
        stroke-width: 0px;
      }

      .cls-2 {
        fill: #1e1e1e;
      }

      .cls-3 {
        fill: #fff;
      }
    </style>
  </defs>
  <rect class="cls-2" x="20" y="19" width="19" height="24"/>
  <circle class="cls-3" cx="30.5" cy="30.5" r="30.5"/>
  <path class="cls-1" d="M22,29.5c-.83,0-1.5.67-1.5,1.5s.67,1.5,1.5,1.5v-3ZM28.51,20.39c-.59-.59-1.54-.59-2.12,0-.59.59-.59,1.54,0,2.12l8.49,8.49-8.49,8.49c-.59.59-.59,1.54,0,2.12s1.54.59,2.12,0l9.55-9.55c.59-.59.59-1.54,0-2.12l-9.55-9.55ZM22,32.5h15s0-3,0-3h-15s0,3,0,3Z"/>
</svg>