<?xml version="1.0" encoding="UTF-8"?>
<svg id="Ebene_1" data-name="Ebene 1" xmlns="http://www.w3.org/2000/svg" viewBox="0 0 59 59">
  <defs>
    <style>
      .cls-1 {
        fill: #191a1c;
      }

      .cls-1, .cls-2 {
        stroke-width: 0px;
      }

      .cls-2 {
        fill: #fff;
      }
    </style>
  </defs>
  <circle class="cls-1" cx="29.5" cy="29.5" r="29.5"/>
  <path class="cls-2" d="M30.75,17.5c0-.69-.56-1.25-1.25-1.25s-1.25.56-1.25,1.25h2.5ZM28.62,42.38c.49.49,1.28.49,1.77,0l7.95-7.95c.49-.49.49-1.28,0-1.77-.49-.49-1.28-.49-1.77,0l-7.07,7.07-7.07-7.07c-.49-.49-1.28-.49-1.77,0-.49.49-.49,1.28,0,1.77l7.95,7.95ZM28.25,17.5v24h2.5v-24h-2.5Z"/>
</svg>